<?xml version="1.0" standalone="no"?><!DOCTYPE svg PUBLIC "-//W3C//DTD SVG 1.1//EN" "http://www.w3.org/Graphics/SVG/1.1/DTD/svg11.dtd"><svg class="icon" height="512" viewBox="0 0 1024 1024" version="1.1" xmlns="http://www.w3.org/2000/svg"><path d="M901.656381 123.562667h-205.092571v-40.862477A81.92 81.92 0 0 0 614.497524 0.926476H409.404952c-45.29981 0-82.017524 36.571429-82.017523 81.773714v40.862477H122.246095v40.911238h42.276572l41.057523 776.825905A81.92 81.92 0 0 0 287.695238 1023.073524h451.193905c45.348571 0 82.066286-36.571429 82.066286-81.773714l40.326095-776.825905h40.472381v-40.911238zM368.39619 82.70019c0-22.576762 18.432-40.911238 41.008762-40.911238h205.092572a40.96 40.96 0 0 1 41.057524 40.911238v40.862477h-287.207619v-40.862477z m411.550477 856.502858l-0.048762 1.024v1.072762a40.96 40.96 0 0 1-41.057524 40.911238H287.695238a41.008762 41.008762 0 0 1-41.057524-40.911238v-2.145524l-40.96-774.680381H820.175238l-40.228571 774.729143z" fill="#E64340" /><path d="M491.471238 246.247619h40.96v654.189714h-40.96zM410.331429 899.120762l-41.935239-652.921905-40.96 2.584381 41.935239 652.921905zM696.807619 247.515429l-40.911238-2.535619-41.398857 654.189714 40.96 2.535619z" fill="#E64340" /></svg>